{
  "asset": {
    "version": "2.0",
    "generator": "THREE.GLTFExporter"
  },
  "scenes": [
    {
      "nodes": [
        0
      ]
    }
  ],
  "scene": 0,
  "nodes": [
    {
      "children": [
        4
      ],
      "matrix": [
        0.01,
        0,
        0,
        0,
        0,
        0.01,
        0,
        0,
        0,
        0,
        0.01,
        0,
        0,
        0,
        0,
        1
      ]
    },
    {
      "matrix": [
        1,
        0,
        0,
        0,
        0,
        1,
        0,
        0,
        0,
        0,
        1,
        0,
        1557.079801983099,
        4843.758603178749,
        -1981.5138440253822,
        1
      ],
      "name": "Helix",
      "mesh": 0
    },
    {
      "matrix": [
        0.707106787269921,
        -1.2166747137554168e-8,
        -0.7071067751031739,
        0,
        -0.4082482799271506,
        0.8164965809277261,
        -0.4082483010005748,
        0,
        0.577350269189626,
        0.5773502691896254,
        0.577350269189626,
        0,
        13767.306117653123,
        16006.42645998229,
        8532.833968327739,
        1
      ],
      "camera": 0
    },
    {
      "matrix": [
        1,
        0,
        0,
        0,
        0,
        1,
        0,
        0,
        0,
        0,
        1,
        0,
        0,
        1,
        0,
        1
      ],
      "name": "Default Ambient Light"
    },
    {
      "name": "Scene",
      "children": [
        1,
        2,
        3
      ]
    }
  ],
  "bufferViews": [
    {
      "buffer": 0,
      "byteOffset": 0,
      "byteLength": 33852,
      "target": 34962,
      "byteStride": 12
    },
    {
      "buffer": 0,
      "byteOffset": 33852,
      "byteLength": 33852,
      "target": 34962,
      "byteStride": 12
    },
    {
      "buffer": 0,
      "byteOffset": 67704,
      "byteLength": 22568,
      "target": 34962,
      "byteStride": 8
    },
    {
      "buffer": 0,
      "byteOffset": 90272,
      "byteLength": 32040,
      "target": 34963
    }
  ],
  "buffers": [
    {
      "byteLength": 122312,
      "uri": "data:application/octet-stream;base64,"
    }
  ],
  "accessors": [
    {
      "bufferView": 0,
      "componentType": 5126,
      "count": 2821,
      "max": [
        1664.6513671875,
        2563.59375,
        1664.6513671875
      ],
      "min": [
        -1664.6513671875,
        -2563.614013671875,
        -1664.6513671875
      ],
      "type": "VEC3"
    },
    {
      "bufferView": 1,
      "componentType": 5126,
      "count": 2821,
      "max": [
        1,
        0.9869756102561951,
        1
      ],
      "min": [
        -1,
        -0.984324038028717,
        -1
      ],
      "type": "VEC3"
    },
    {
      "bufferView": 2,
      "componentType": 5126,
      "count": 2821,
      "max": [
        1,
        1
      ],
      "min": [
        0,
        0
      ],
      "type": "VEC2"
    },
    {
      "bufferView": 3,
      "componentType": 5123,
      "count": 16020,
      "max": [
        2819
      ],
      "min": [
        1
      ],
      "type": "SCALAR"
    }
  ],
  "meshes": [
    {
      "primitives": [
        {
          "mode": 4,
          "attributes": {
            "POSITION": 0,
            "NORMAL": 1,
            "TEXCOORD_0": 2
          },
          "extras": {
            "parameters": {
              "width": 3329.302653574001,
              "revolutions": 2,
              "segments": 40,
              "pathRadius": 100,
              "pathType": 0,
              "pathSegments": 30,
              "cornerRadius": 30,
              "cornerSegments": 4,
              "depth": 3695.0276880507636,
              "height": 5133.120222297094,
              "radius": 1664.6513267870005,
              "type": "HelixGeometry"
            },
            "type": "HelixGeometry"
          },
          "indices": 3
        }
      ]
    }
  ],
  "cameras": [
    {
      "type": "perspective",
      "perspective": {
        "aspectRatio": 1.8485237483953787,
        "yfov": 0.7853981633974483,
        "zfar": 100000,
        "znear": 5
      }
    }
  ]
}