{
  "asset": {
    "version": "2.0",
    "generator": "THREE.GLTFExporter"
  },
  "scenes": [
    {
      "nodes": [
        0
      ]
    }
  ],
  "scene": 0,
  "nodes": [
    {
      "children": [
        6
      ],
      "matrix": [
        0.01,
        0,
        0,
        0,
        0,
        0.01,
        0,
        0,
        0,
        0,
        0.01,
        0,
        0,
        0,
        0,
        1
      ]
    },
    {
      "matrix": [
        1.6653345369377343e-16,
        -0.9999999999999998,
        -1.5265566588595898e-16,
        0,
        5.551115123125785e-17,
        3.0531133177191805e-16,
        -0.9999999999999999,
        0,
        1,
        2.7755575615628914e-16,
        -8.326672684688678e-17,
        0,
        -9.032942229192123e-13,
        -58.22901731836099,
        342.0730856611916,
        0.9999999999999998
      ],
      "name": "Cube 2",
      "mesh": 0
    },
    {
      "matrix": [
        1,
        0,
        0,
        0,
        0,
        1,
        0,
        0,
        0,
        0,
        1,
        0,
        -152.96225176084045,
        506.624608567382,
        0,
        1
      ],
      "name": "Cube",
      "mesh": 1
    },
    {
      "matrix": [
        1,
        0,
        0,
        0,
        0,
        1,
        0,
        0,
        0,
        0,
        1,
        0,
        5134.585744135864,
        3443.064008989483,
        -14956.99,
        1
      ],
      "name": "Group",
      "children": [
        1,
        2
      ]
    },
    {
      "matrix": [
        0.7071067811865487,
        -2.7755575615628914e-17,
        -0.7071067811865464,
        0,
        -0.40824829046386335,
        0.8164965809277249,
        -0.4082482904638647,
        0,
        0.577350269189624,
        0.5773502691896272,
        0.577350269189626,
        0,
        44045.81534635335,
        37086.32568823654,
        20707.8679948543,
        1
      ],
      "camera": 0
    },
    {
      "matrix": [
        1,
        0,
        0,
        0,
        0,
        1,
        0,
        0,
        0,
        0,
        1,
        0,
        0,
        1,
        0,
        1
      ],
      "name": "Default Ambient Light"
    },
    {
      "name": "Scene",
      "children": [
        3,
        4,
        5
      ]
    }
  ],
  "bufferViews": [
    {
      "buffer": 0,
      "byteOffset": 0,
      "byteLength": 38688,
      "target": 34962,
      "byteStride": 12
    },
    {
      "buffer": 0,
      "byteOffset": 38688,
      "byteLength": 38688,
      "target": 34962,
      "byteStride": 12
    },
    {
      "buffer": 0,
      "byteOffset": 77376,
      "byteLength": 25792,
      "target": 34962,
      "byteStride": 8
    },
    {
      "buffer": 0,
      "byteOffset": 103168,
      "byteLength": 31176,
      "target": 34963
    },
    {
      "buffer": 0,
      "byteOffset": 134344,
      "byteLength": 38688,
      "target": 34962,
      "byteStride": 12
    },
    {
      "buffer": 0,
      "byteOffset": 173032,
      "byteLength": 38688,
      "target": 34962,
      "byteStride": 12
    },
    {
      "buffer": 0,
      "byteOffset": 211720,
      "byteLength": 25792,
      "target": 34962,
      "byteStride": 8
    },
    {
      "buffer": 0,
      "byteOffset": 237512,
      "byteLength": 31176,
      "target": 34963
    }
  ],
  "buffers": [
    {
      "byteLength": 268688,
      "uri": "data:application/octet-stream;base64,"
    }
  ],
  "accessors": [
    {
      "bufferView": 0,
      "componentType": 5126,
      "count": 3224,
      "max": [
        4486.51904296875,
        4007.616943359375,
        15023.7470703125
      ],
      "min": [
        -4486.51904296875,
        -4007.616943359375,
        -15023.7470703125
      ],
      "type": "VEC3"
    },
    {
      "bufferView": 1,
      "componentType": 5126,
      "count": 3224,
      "max": [
        1,
        1,
        1
      ],
      "min": [
        -1,
        -1,
        -1
      ],
      "type": "VEC3"
    },
    {
      "bufferView": 2,
      "componentType": 5126,
      "count": 3224,
      "max": [
        1,
        1
      ],
      "min": [
        0,
        0
      ],
      "type": "VEC2"
    },
    {
      "bufferView": 3,
      "componentType": 5123,
      "count": 15588,
      "max": [
        3223
      ],
      "min": [
        0
      ],
      "type": "SCALAR"
    },
    {
      "bufferView": 4,
      "componentType": 5126,
      "count": 3224,
      "max": [
        5000,
        3949.688720703125,
        15023.7470703125
      ],
      "min": [
        -5000,
        -3949.688720703125,
        -15023.7470703125
      ],
      "type": "VEC3"
    },
    {
      "bufferView": 5,
      "componentType": 5126,
      "count": 3224,
      "max": [
        1,
        1,
        1
      ],
      "min": [
        -1,
        -1,
        -1
      ],
      "type": "VEC3"
    },
    {
      "bufferView": 6,
      "componentType": 5126,
      "count": 3224,
      "max": [
        1,
        1
      ],
      "min": [
        0,
        0
      ],
      "type": "VEC2"
    },
    {
      "bufferView": 7,
      "componentType": 5123,
      "count": 15588,
      "max": [
        3223
      ],
      "min": [
        0
      ],
      "type": "SCALAR"
    }
  ],
  "meshes": [
    {
      "primitives": [
        {
          "mode": 4,
          "attributes": {
            "POSITION": 0,
            "NORMAL": 1,
            "TEXCOORD_0": 2
          },
          "extras": {
            "parameters": {
              "width": 8973.038505308366,
              "widthSegments": 1,
              "heightSegments": 1,
              "depthSegments": 1,
              "cornerRadius": 128,
              "cornerSegments": 24,
              "depth": 30047.4945343493,
              "height": 8015.233991644294,
              "type": "CubeGeometry"
            },
            "type": "CubeGeometry"
          },
          "indices": 3
        }
      ]
    },
    {
      "primitives": [
        {
          "mode": 4,
          "attributes": {
            "POSITION": 4,
            "NORMAL": 5,
            "TEXCOORD_0": 6
          },
          "extras": {
            "parameters": {
              "width": 10000,
              "widthSegments": 1,
              "heightSegments": 1,
              "depthSegments": 1,
              "cornerRadius": 128,
              "cornerSegments": 24,
              "depth": 30047.4945343493,
              "height": 7899.377235113731,
              "type": "CubeGeometry"
            },
            "type": "CubeGeometry"
          },
          "indices": 7
        }
      ]
    }
  ],
  "cameras": [
    {
      "type": "perspective",
      "perspective": {
        "aspectRatio": 1.8485237483953787,
        "yfov": 0.7853981633974483,
        "zfar": 100000,
        "znear": 5
      }
    }
  ]
}